<svg xmlns="http://www.w3.org/2000/svg" xmlns:xlink="http://www.w3.org/1999/xlink" width="255" height="239" viewBox="0 0 255 239">
  <defs>
    <style>
      .cls-1 {
        clip-path: url(#clip-logo);
      }

      .cls-2 {
        fill: #fff;
      }
    </style>
    <clipPath id="clip-logo">
      <rect width="255" height="239"/>
    </clipPath>
  </defs>
  <g id="logo" class="cls-1">
    <g id="Capture_d_écran_2020-12-05_213334" data-name="Capture d’écran 2020-12-05 213334" transform="translate(-88.165 704.783)">
      <path id="Tracé_4" data-name="Tracé 4" class="cls-2" d="M159.757-704.4a22.776,22.776,0,0,0-4.635,1.661c-9.773,4.751-13.327,14.833-9.889,28.006l.7,2.665-2.743,1.815c-9.194,6.1-15.374,12.863-19.391,21.207-3.631,7.455-3.747,8.344-3.863,26.46-.077,14.37.039,17.808.773,25.688l.27,2.7-2.82,1.738c-1.545.966-4.906,3.4-7.455,5.447-11.318,9.039-18.194,18.966-21.323,30.864-.888,3.245-1,4.674-1.159,12.4-.27,11.782.464,16.88,3.4,24.027,8.923,21.593,35.113,39.131,71.926,48.169a225.293,225.293,0,0,0,31.173,5.1c7.378.772,35.036.657,43.573-.193,24.684-2.433,44.268-7.687,62.848-16.881,23.332-11.511,37.431-26.847,41.178-44.809.7-3.4.85-5.369.85-11.975,0-8.151-.348-11.936-1.7-17a53.656,53.656,0,0,0-12.941-22.4l-2.936-3.09,3.863-4.056c4.751-4.944,7.3-8.344,9.387-12.284,3.168-6.065,4.249-10.623,4.249-17.769a38.164,38.164,0,0,0-7.069-22.945A48.866,48.866,0,0,0,325.55-650.13a43.33,43.33,0,0,0-19.623-6.721l-3.283-.232-1.661-1.97c-5.871-6.953-15.992-13.945-27.233-18.773-3.786-1.622-5.06-2.395-7.378-4.481-2.781-2.472-2.82-2.549-3.052-4.867a20.106,20.106,0,0,0-15.838-17.19,19.941,19.941,0,0,0-18.464,6.026,24.2,24.2,0,0,0-4.751,8.421c-.386,1.815-.811,1.584-1.507-.773a20.319,20.319,0,0,0-13.172-13.134,20.072,20.072,0,0,0-25.456,14.717c-.309,1.2-.579,1.816-.579,1.313a21.94,21.94,0,0,0-2.936-7.571A19.854,19.854,0,0,0,159.757-704.4Zm6.76,16.842c.888.888,1.12,1.545,1.352,3.863.425,4.249,1.816,6.721,6.374,11.434l3.9,4.017,2.781-.734a139.7,139.7,0,0,1,14.949-2.665c2.009-.232,4.481-.5,5.485-.618l1.816-.232-.927-1.854a26.522,26.522,0,0,1-2.511-9.773c0-1.97.154-2.395,1.12-3.4a3.307,3.307,0,0,1,2.82-1.12c2.588,0,3.592,1.275,4.095,5.176a16.875,16.875,0,0,0,4.172,9.194l1.352,1.468,5.292.039c2.9,0,6.412.077,7.8.193,4.481.348,12.9,1.352,14.486,1.7a15.273,15.273,0,0,0,2.665.386c1.043,0,1.082-.039.541-.7-2.781-3.129-5.292-12.052-4.21-14.872a3.832,3.832,0,0,1,6.335-1.507c.888.927,1.12,1.622,1.391,4.095.5,4.365,1.738,6.451,7.146,12.168l4.635,4.867L263.2-665c10.352,3.9,17.73,8.382,23.872,14.563,3.515,3.554,4.288,4.558,5.756,7.61l1.7,3.515,2.356-.773a26.771,26.771,0,0,1,11.4-.425c12.632,2.627,21.168,15.876,18.387,28.469-1.429,6.3-4.211,10.082-15.915,21.516a201.643,201.643,0,0,1-21.168,18.349c-4.867,3.67-6.142,4.828-7.378,6.837-5.833,9.155-16.224,19.16-26.074,25.109-12.052,7.262-24.761,10.7-39.594,10.739a74.416,74.416,0,0,1-26.074-4.095,80.26,80.26,0,0,1-52.148-56.166c-2.009-8.035-2.24-11.009-2.279-29.551-.039-17.962,0-18.619,1.816-22.752,2.086-4.674,7.88-10.816,14.022-14.872a95.486,95.486,0,0,1,14.37-7.417c3.283-1.236,3.283-1.12.386-4.056a23.437,23.437,0,0,1-6.683-15.722c0-1.97.155-2.395,1.12-3.4A3.779,3.779,0,0,1,166.517-687.561ZM132.756-580.406a106.775,106.775,0,0,0,6.181,13.829,87.873,87.873,0,0,0,49.753,40.753,88.4,88.4,0,0,0,47.551,1.97c20.319-4.867,39.478-18.117,51.685-35.615,1.622-2.318,3.013-3.631,7.533-7.146,3.052-2.356,7.069-5.6,8.885-7.146a31.709,31.709,0,0,1,3.631-2.858c.541,0,7.069,5.678,9.116,7.88,6.412,7.03,9.541,14.254,10,22.829.309,6.605-1.313,11.743-5.91,18.735-2.472,3.786-9.464,10.739-14.061,13.983-19.7,13.945-49.715,22.211-85.832,23.641-4.558.193-19.507-.27-24.838-.734-25.186-2.318-47.436-8.691-65.4-18.812-15.451-8.73-25.07-20.241-26.692-31.984-1.893-13.79,5.91-27.078,22.173-37.74,2.125-1.391,4.21-2.743,4.635-3.052a7.813,7.813,0,0,1,.85-.5A18.629,18.629,0,0,1,132.756-580.406Z" transform="translate(0 0)"/>
      <path id="Tracé_5" data-name="Tracé 5" class="cls-2" d="M293.56-601.516a160.958,160.958,0,0,0-18.155,2.356c-2.318.463-4.288.888-4.365.927a13.538,13.538,0,0,0,.5,2.279c.7,2.7.85,6.721.27,7.764a3.792,3.792,0,0,1-3.554,2.163c-2.665.077-3.322-1-4.635-7.88l-.425-2.2-3.361,1.159c-11.318,3.979-20.628,10.236-24.8,16.687-4.365,6.644-2.936,14.64,3.786,21.477,9.425,9.464,28.16,15.8,53.887,18.233,4.6.425,22.945.309,25.379-.155.541-.116,2.2-.309,3.67-.463,12.979-1.236,28.662-5.524,37.663-10.314,12.825-6.8,18.7-15.992,15.915-24.954-1.352-4.288-5.717-9.464-10.971-12.94-1.893-1.236-11.9-6.451-12.438-6.451a7.32,7.32,0,0,0,.039,2.125c.348,3.4-1,5.485-3.631,5.678-2.743.154-3.554-.85-4.52-5.678-.927-4.52-1.236-5.138-2.9-5.562-4.713-1.236-6.528-1.661-9.58-2.2a146.128,146.128,0,0,0-16.456-1.931c-2.588-.116-4.944-.271-5.176-.348-.7-.232-.618.039.425,2.279a23.325,23.325,0,0,1,1.97,7.61c.309,2.82-.464,4.79-2.163,5.524-1.12.464-.888.5,3.361.773,4.558.27,5.138.309,10.97,1.043,12.052,1.468,25.8,5.292,34.032,9.425a57.7,57.7,0,0,1,8.421,5.485L368-568.527l-.618,1.468c-.85,2.125-4.944,6.181-8.576,8.614C347.292-550.8,326.7-546.2,303.99-546.2c-15.953-.039-28.121-1.893-41.487-6.3-10.43-3.438-18.928-9.193-21.284-14.37l-.773-1.661,1.082-.888c11.55-9.619,35.538-16.147,60.453-16.378,5.06-.039,5.563-.116,4.635-.579-1.545-.734-2.086-1.816-2.472-4.867a19.631,19.631,0,0,0-1.236-4.674c-.966-2.047-3.94-6.065-4.442-5.987C298.311-601.863,296.109-601.67,293.56-601.516Z" transform="translate(-88.608 -63.139)"/>
      <path id="Tracé_6" data-name="Tracé 6" class="cls-2" d="M621.876-518.192c-3.477,1.159-3.168-.309-3.4,15.722-.27,17.576-1,23.834-3.515,31.019-.309.888-.5,1.622-.348,1.622.116,0,2.472-2.047,5.292-4.558,7.03-6.3,18-17.383,19.623-19.855,5.1-7.726,2.82-17.46-5.254-22.482A16.36,16.36,0,0,0,621.876-518.192Z" transform="translate(-323.057 -114.131)"/>
    </g>
  </g>
</svg>
