<svg xmlns="http://www.w3.org/2000/svg" xmlns:xlink="http://www.w3.org/1999/xlink" width="255" height="255" viewBox="0 0 255 255">
  <defs>
    <style>
      .cls-1 {
        clip-path: url(#clip-favicon);
      }

      .cls-2 {
        fill: #1f2937;
      }

      .cls-3 {
        fill: #fff;
      }
    </style>
    <clipPath id="clip-favicon">
      <rect width="255" height="255"/>
    </clipPath>
  </defs>
  <g id="favicon" class="cls-1">
    <rect id="Rectangle_2" data-name="Rectangle 2" class="cls-2" width="255" height="255" rx="20"/>
    <g id="Capture_d_écran_2020-12-05_213334" data-name="Capture d’écran 2020-12-05 213334" transform="translate(-53.165 745.783)">
      <path id="Tracé_4" data-name="Tracé 4" class="cls-3" d="M139.944-704.508a16.471,16.471,0,0,0-3.353,1.2c-7.068,3.436-9.639,10.728-7.152,20.255l.5,1.928-1.984,1.313c-6.649,4.414-11.119,9.3-14.025,15.338-2.626,5.392-2.71,6.035-2.794,19.137-.056,10.393.028,12.879.559,18.579l.2,1.956-2.039,1.257c-1.118.7-3.548,2.458-5.392,3.939-8.186,6.537-13.159,13.717-15.422,22.322-.643,2.347-.726,3.38-.838,8.968-.2,8.521.335,12.209,2.459,17.377,6.454,15.617,25.4,28.3,52.02,34.838a162.945,162.945,0,0,0,22.546,3.688c5.336.559,25.339.475,31.514-.14,17.852-1.76,32.017-5.56,45.455-12.209,16.874-8.325,27.072-19.417,29.782-32.408.5-2.458.615-3.883.615-8.661,0-5.895-.251-8.633-1.229-12.293a38.807,38.807,0,0,0-9.359-16.2l-2.123-2.235,2.794-2.933a37.9,37.9,0,0,0,6.789-8.884,24.6,24.6,0,0,0,3.073-12.851,27.6,27.6,0,0,0-5.113-16.595,35.344,35.344,0,0,0-7.571-7.431,31.338,31.338,0,0,0-14.192-4.861l-2.375-.168-1.2-1.425c-4.247-5.029-11.566-10.086-19.7-13.578a15.55,15.55,0,0,1-5.336-3.241c-2.012-1.788-2.039-1.844-2.207-3.52a14.541,14.541,0,0,0-11.454-12.432,14.422,14.422,0,0,0-13.354,4.358,17.5,17.5,0,0,0-3.436,6.09c-.279,1.313-.587,1.145-1.09-.559a14.7,14.7,0,0,0-9.527-9.5,14.517,14.517,0,0,0-18.411,10.644c-.223.866-.419,1.313-.419.95a15.868,15.868,0,0,0-2.123-5.476A14.359,14.359,0,0,0,139.944-704.508Zm4.889,12.181c.643.643.81,1.118.978,2.794.307,3.073,1.313,4.861,4.61,8.27l2.822,2.906,2.012-.531a101.028,101.028,0,0,1,10.812-1.928c1.453-.168,3.241-.363,3.967-.447l1.313-.168-.671-1.341a19.181,19.181,0,0,1-1.816-7.068c0-1.425.112-1.732.81-2.458a2.392,2.392,0,0,1,2.039-.81c1.872,0,2.6.922,2.961,3.744a12.2,12.2,0,0,0,3.017,6.649l.978,1.062,3.827.028c2.1,0,4.638.056,5.643.14,3.241.251,9.331.978,10.477,1.229a11.044,11.044,0,0,0,1.928.279c.754,0,.782-.028.391-.5-2.012-2.263-3.827-8.717-3.045-10.756a2.771,2.771,0,0,1,4.582-1.09c.643.671.81,1.173,1.006,2.961.363,3.157,1.257,4.666,5.169,8.8l3.353,3.52,2.766,1.034c7.487,2.822,12.823,6.063,17.266,10.533,2.542,2.57,3.1,3.3,4.163,5.5l1.229,2.542,1.7-.559a19.362,19.362,0,0,1,8.242-.307,17.575,17.575,0,0,1,13.3,20.59c-1.034,4.554-3.045,7.292-11.51,15.561a145.84,145.84,0,0,1-15.31,13.271c-3.52,2.654-4.442,3.492-5.336,4.945a62.667,62.667,0,0,1-18.858,18.16,53.729,53.729,0,0,1-28.636,7.767,53.821,53.821,0,0,1-18.858-2.961,58.048,58.048,0,0,1-37.716-40.621c-1.453-5.811-1.62-7.962-1.648-21.372-.028-12.991,0-13.466,1.313-16.455,1.509-3.381,5.7-7.823,10.141-10.756a69.061,69.061,0,0,1,10.393-5.364c2.375-.894,2.375-.81.279-2.933a16.951,16.951,0,0,1-4.833-11.371c0-1.425.112-1.732.81-2.458A2.733,2.733,0,0,1,144.833-692.328Zm-24.418,77.5a77.226,77.226,0,0,0,4.47,10,63.554,63.554,0,0,0,35.984,29.474,63.933,63.933,0,0,0,34.391,1.425,65.336,65.336,0,0,0,37.381-25.759c1.173-1.676,2.179-2.626,5.448-5.168,2.207-1.7,5.113-4.051,6.426-5.168a22.932,22.932,0,0,1,2.626-2.067c.391,0,5.113,4.107,6.593,5.7,4.638,5.085,6.9,10.309,7.236,16.511.224,4.777-.95,8.493-4.274,13.55a50.549,50.549,0,0,1-10.169,10.113c-14.248,10.086-35.956,16.064-62.078,17.1-3.3.14-14.109-.2-17.964-.531-18.215-1.676-34.307-6.286-47.3-13.606-11.175-6.314-18.132-14.639-19.3-23.132-1.369-9.974,4.274-19.584,16.036-27.3,1.537-1.006,3.045-1.984,3.353-2.207a5.654,5.654,0,0,1,.615-.363A13.476,13.476,0,0,1,120.415-614.828Z"/>
      <path id="Tracé_5" data-name="Tracé 5" class="cls-3" d="M276.673-601.623a116.411,116.411,0,0,0-13.131,1.7c-1.676.335-3.1.643-3.157.67a9.79,9.79,0,0,0,.363,1.648c.5,1.956.615,4.861.2,5.615a2.742,2.742,0,0,1-2.57,1.565c-1.928.056-2.4-.726-3.353-5.7l-.307-1.592-2.431.838c-8.186,2.878-14.919,7.4-17.936,12.069-3.157,4.805-2.123,10.588,2.738,15.533,6.817,6.845,20.367,11.427,38.973,13.187a171.664,171.664,0,0,0,18.355-.112c.391-.084,1.592-.224,2.654-.335,9.387-.894,20.73-4,27.239-7.459,9.275-4.917,13.522-11.566,11.51-18.048-.978-3.1-4.135-6.845-7.934-9.359a98.835,98.835,0,0,0-9-4.666,5.3,5.3,0,0,0,.028,1.537c.251,2.459-.726,3.967-2.626,4.107-1.984.112-2.57-.615-3.269-4.107-.671-3.269-.894-3.716-2.1-4.023-3.408-.894-4.721-1.2-6.929-1.592a105.693,105.693,0,0,0-11.9-1.4c-1.872-.084-3.576-.2-3.744-.251-.5-.168-.447.028.307,1.648a16.869,16.869,0,0,1,1.425,5.5c.224,2.039-.335,3.464-1.565,4-.81.335-.643.363,2.431.559,3.3.2,3.716.224,7.934.754,8.717,1.062,18.662,3.828,24.613,6.817a41.734,41.734,0,0,1,6.09,3.967l.922.782-.447,1.062c-.615,1.537-3.576,4.47-6.2,6.23-8.325,5.532-23.216,8.856-39.644,8.856-11.538-.028-20.339-1.369-30.005-4.554-7.543-2.486-13.689-6.649-15.394-10.393l-.559-1.2.782-.643c8.353-6.957,25.7-11.678,43.723-11.846,3.66-.028,4.023-.084,3.353-.419-1.118-.531-1.509-1.313-1.788-3.52a14.2,14.2,0,0,0-.894-3.38c-.7-1.481-2.85-4.386-3.213-4.33C280.11-601.874,278.517-601.734,276.673-601.623Z" transform="translate(-104.043 -74.138)"/>
      <path id="Tracé_6" data-name="Tracé 6" class="cls-3" d="M619.851-518.364c-2.514.838-2.291-.224-2.458,11.371-.2,12.712-.726,17.238-2.542,22.434-.224.643-.363,1.173-.251,1.173.084,0,1.788-1.481,3.828-3.3,5.085-4.554,13.019-12.572,14.192-14.36,3.688-5.588,2.039-12.628-3.8-16.26A11.832,11.832,0,0,0,619.851-518.364Z" transform="translate(-379.331 -134.012)"/>
    </g>
  </g>
</svg>
